<svg width="200" height="40" viewBox="0 0 200 40" fill="none" xmlns="http://www.w3.org/2000/svg">
<g clip-path="url(#clip0)">
<path d="M191.847 6.62645V6.40688C191.814 4.81195 191.164 3.29181 190.035 2.16512C188.906 1.03844 187.384 0.392701 185.789 0.363281H185.569C184.374 0.385827 183.212 0.755125 182.223 1.42625C181.234 2.09738 180.462 3.04141 180 4.14351C179.537 5.2456 179.405 6.45827 179.62 7.63398C179.834 8.8097 180.385 9.89779 181.207 10.7659C180.14 11.8846 179.534 13.3636 179.508 14.9089V15.1213C179.536 16.7197 180.184 18.2445 181.315 19.3745C182.446 20.5045 183.971 21.1516 185.569 21.1793H185.789C186.984 21.1544 188.146 20.7828 189.134 20.1098C190.122 19.4368 190.893 18.4914 191.353 17.3883C191.814 16.2853 191.944 15.0722 191.728 13.8966C191.512 12.7209 190.96 11.6333 190.137 10.7659C191.208 9.65053 191.818 8.1723 191.847 6.62645ZM188.006 15.0781C187.992 15.675 187.748 16.2433 187.326 16.6655C186.904 17.0876 186.335 17.3312 185.739 17.3458H185.616C184.909 17.3356 184.216 17.1493 183.599 16.8038C182.983 16.4582 182.462 15.9643 182.084 15.3668C181.707 14.7693 181.484 14.087 181.436 13.3817C181.389 12.6764 181.518 11.9703 181.811 11.3274C182.879 12.1846 184.201 12.662 185.569 12.6844H185.739C186.335 12.699 186.904 12.9427 187.326 13.3648C187.748 13.787 187.992 14.3553 188.006 14.9521C188.011 14.9928 188.011 15.0339 188.006 15.0745V15.0781ZM189.543 10.208C188.478 9.35013 187.157 8.87255 185.789 8.85095H185.616C185.019 8.83543 184.451 8.59105 184.029 8.16832C183.607 7.74558 183.363 7.17684 183.348 6.57965C183.347 6.5605 183.347 6.54122 183.348 6.52206C183.347 6.50171 183.347 6.48122 183.348 6.46087C183.364 5.86397 183.608 5.29572 184.03 4.87317C184.451 4.45062 185.019 4.20596 185.616 4.18957H185.739C186.445 4.20042 187.139 4.38728 187.755 4.73327C188.372 5.07925 188.892 5.57345 189.27 6.17119C189.648 6.76894 189.871 7.45137 189.918 8.15681C189.966 8.86225 189.837 9.56845 189.543 10.2116V10.208Z" fill="#BD03FA"/>
<path d="M189.928 8.43713C189.928 9.04815 189.796 9.65196 189.543 10.2081C188.478 9.35025 187.156 8.87267 185.789 8.85107H185.738C186.341 8.8274 186.91 8.57149 187.328 8.13699C187.746 7.70249 187.979 7.12314 187.979 6.52038C187.979 5.91763 187.746 5.33828 187.328 4.90378C186.91 4.46928 186.341 4.21337 185.738 4.1897C186.855 4.20577 187.921 4.66074 188.705 5.45622C189.489 6.25171 189.928 7.32381 189.928 8.44073V8.43713Z" fill="#BD03FA"/>
<path d="M183.346 15.0171C183.346 15.625 183.583 16.2088 184.008 16.6439C184.432 17.079 185.01 17.331 185.617 17.346C184.911 17.3358 184.217 17.1495 183.601 16.804C182.984 16.4584 182.463 15.9645 182.086 15.367C181.708 14.7695 181.485 14.0872 181.437 13.3819C181.39 12.6766 181.519 11.9705 181.813 11.3276C182.88 12.1848 184.202 12.6622 185.571 12.6847H185.617C185.009 12.6997 184.431 12.9522 184.006 13.3881C183.582 13.824 183.345 14.4087 183.346 15.0171Z" fill="#BD03FA"/>
<path d="M179.814 22.6624V23.4363H191.538V22.6624H179.814Z" fill="#BD03FA"/>
<path d="M191.894 6.59067V6.3675C191.865 4.76528 191.215 3.23693 190.082 2.10381C188.949 0.970676 187.421 0.321045 185.818 0.291504H185.595C184.397 0.315934 183.232 0.687591 182.241 1.36138C181.25 2.03516 180.475 2.98211 180.012 4.08732C179.548 5.19252 179.416 6.40847 179.63 7.58762C179.844 8.76677 180.396 9.85842 181.218 10.7301C180.151 11.8528 179.543 13.335 179.516 14.884V15.1215C179.544 16.725 180.194 18.2548 181.328 19.3888C182.462 20.5227 183.992 21.1725 185.595 21.2011H185.818C187.017 21.1767 188.182 20.805 189.173 20.1312C190.164 19.4575 190.938 18.5105 191.402 17.4053C191.865 16.3001 191.998 15.0842 191.784 13.905C191.57 12.7259 191.018 11.6342 190.195 10.7625C191.266 9.63475 191.872 8.14535 191.894 6.59067ZM188.043 15.0711C188.027 15.6699 187.781 16.2396 187.357 16.6628C186.933 17.0861 186.363 17.3306 185.764 17.346H185.642C184.932 17.3365 184.237 17.1499 183.617 16.8032C182.998 16.4565 182.475 15.9606 182.096 15.3607C181.717 14.7608 181.494 14.0757 181.447 13.3676C181.4 12.6595 181.53 11.9509 181.827 11.306C182.895 12.1668 184.22 12.6468 185.592 12.6703H185.764C186.364 12.6866 186.934 12.9319 187.357 13.3557C187.781 13.7795 188.027 14.3496 188.043 14.9488V15.0711ZM189.58 10.183C188.513 9.32227 187.189 8.84219 185.818 8.81877H185.646C185.046 8.80242 184.476 8.55712 184.053 8.13331C183.629 7.7095 183.383 7.13941 183.367 6.54027V6.41789C183.384 5.8191 183.629 5.24941 184.053 4.82619C184.477 4.40296 185.047 4.15843 185.646 4.14299H185.768C186.478 4.15256 187.174 4.33916 187.793 4.68586C188.412 5.03256 188.935 5.52838 189.314 6.12832C189.693 6.72827 189.916 7.41336 189.963 8.12142C190.01 8.82948 189.88 9.53811 189.584 10.183H189.58Z" fill="url(#paint0_radial)"/>
<path d="M29.293 29.1369C29.3239 28.5265 29.2095 27.9175 28.9592 27.36C28.7089 26.8024 28.3298 26.3123 27.8532 25.9297C26.8813 25.1666 25.1752 24.3747 22.7347 23.554C20.6908 22.8924 18.6923 22.0976 16.7523 21.1747C11.713 18.6983 9.1933 15.2967 9.1933 10.9701C9.15668 8.91239 9.81484 6.90241 11.0615 5.26488C12.3189 3.6211 14.0947 2.33967 16.3887 1.42059C18.8603 0.470658 21.4909 0.00269595 24.1385 0.0419756C26.723 -0.00028364 29.2867 0.510249 31.6579 1.53938C33.7535 2.43568 35.5475 3.91491 36.8268 5.8012C38.0651 7.67245 38.7076 9.87483 38.6698 12.1184H29.311C29.311 10.5346 28.8311 9.30594 27.8712 8.43245C26.8993 7.56137 25.5891 7.12223 23.9117 7.12223C22.2344 7.12223 20.9169 7.48218 19.9523 8.23088C19.5025 8.54946 19.1366 8.97225 18.8859 9.46307C18.6351 9.9539 18.507 10.4982 18.5125 11.0493C18.5125 12.0476 19.0464 12.9522 20.1142 13.7633C21.1821 14.5744 23.0611 15.4143 25.7511 16.283C28.0511 16.9813 30.272 17.9174 32.3778 19.0762C36.5725 21.4879 38.6698 24.8235 38.6698 29.0829C38.6698 32.4856 37.3883 35.1577 34.8255 37.099C32.2626 39.0404 28.7447 40.011 24.2717 40.011C21.3294 40.0545 18.4112 39.4755 15.7084 38.3121C13.1528 37.1818 11.233 35.6328 9.9492 33.6651C8.63766 31.643 7.9596 29.2754 8.00186 26.8656H17.4038C17.4038 28.9485 17.9437 30.4843 19.0236 31.473C20.1035 32.4616 21.8528 32.956 24.2717 32.956C25.8195 32.956 27.0469 32.6212 27.9432 31.9553C28.3828 31.6329 28.736 31.207 28.9715 30.7153C29.2069 30.2237 29.3174 29.6815 29.293 29.1369Z" fill="#BD03FA"/>
<path d="M74.0128 7.80358H62.354V39.4794H52.9628V7.80358H41.502V0.564941H74.0128V7.80358Z" fill="#BD03FA"/>
<path d="M96.8563 32.1939H84.006L81.7636 39.4614H71.7461L86.011 0.564941H94.8262L109.199 39.4614H99.1204L96.8563 32.1939ZM86.2521 24.9553H94.6138L90.4312 11.4643L86.2521 24.9553Z" fill="#BD03FA"/>
<path d="M143.314 34.6524C141.875 36.2578 139.764 37.5488 136.983 38.5255C134.049 39.5301 130.966 40.0279 127.865 39.9977C122.768 39.9977 118.698 38.4379 115.656 35.3183C112.613 32.1987 110.977 27.8661 110.75 22.3205L110.721 18.9549C110.721 15.1154 111.397 11.7715 112.751 8.92306C113.987 6.19153 116.01 3.89063 118.56 2.31434C121.204 0.741025 124.235 -0.0595761 127.311 0.00345457C132.156 0.00345457 135.919 1.11211 138.599 3.32941C141.28 5.54671 142.839 8.85466 143.278 13.2533H134.258C133.939 11.0936 133.244 9.54457 132.174 8.6063C131.104 7.66802 129.589 7.20009 127.631 7.20249C126.539 7.16878 125.457 7.42845 124.498 7.95449C123.54 8.48053 122.74 9.25373 122.182 10.1937C120.9 12.1878 120.25 15.0374 120.231 18.7425V21.093C120.231 24.9757 120.894 27.8925 122.221 29.8434C123.548 31.7944 125.637 32.7698 128.488 32.7698C130.924 32.7698 132.74 32.2263 133.938 31.1393V25.1173H127.419V18.6777H143.314V34.6524Z" fill="#BD03FA"/>
<path d="M172.889 22.9503H158.132V32.2479H175.56V39.4469H148.766V0.564941H175.614V7.80357H158.142V16.0069H172.9L172.889 22.9503Z" fill="#BD03FA"/>
</g>
<defs>
<radialGradient id="paint0_radial" cx="0" cy="0" r="1" gradientUnits="userSpaceOnUse" gradientTransform="translate(185.703 10.7454) rotate(-19.9999) scale(8.59209 17.1841)">
<stop stop-color="#BD03FA"/>
<stop offset="0.22" stop-color="#BA04FA"/>
<stop offset="0.4" stop-color="#B005F9"/>
<stop offset="0.57" stop-color="#9F08F8"/>
<stop offset="0.72" stop-color="#870CF7"/>
<stop offset="0.87" stop-color="#6910F6"/>
<stop offset="1" stop-color="#4616F4"/>
</radialGradient>
<clipPath id="clip0">
<rect width="200" height="40" fill="white"/>
</clipPath>
</defs>
</svg>
