<svg width="73" height="69" viewBox="0 0 73 69" fill="none" xmlns="http://www.w3.org/2000/svg">
<g clip-path="url(#clip0_10457_98479)">
<path fill-rule="evenodd" clip-rule="evenodd" d="M12.6032 49.4424C11.9407 49.4424 11.4258 49.9587 11.4258 50.5465V57.4831C11.4258 58.0762 11.9407 58.5923 12.6032 58.5923H19.4505C20.0366 58.5923 20.5515 58.0762 20.5515 57.4831V50.5465C20.5515 49.9587 20.0366 49.4424 19.374 49.4424H12.6032Z" fill="#AEBECB"/>
<path fill-rule="evenodd" clip-rule="evenodd" d="M53.5422 25.3022C45.4663 25.3022 41.3574 35.2209 47.1548 40.9957C49.0059 42.8624 51.2891 43.7035 53.5322 43.7035C58.2157 43.7035 62.7162 40.0418 62.7162 34.4824C62.645 29.4461 58.6073 25.3022 53.5422 25.3022Z" fill="#8699A9"/>
<path fill-rule="evenodd" clip-rule="evenodd" d="M44.6571 32.7705C43.5571 38.3827 47.8199 43.6981 53.5552 43.6981C59.2906 43.6981 63.6304 38.3827 62.5251 32.7705C61.7153 37.0526 57.9663 40.2295 53.5552 40.2295C49.2159 40.2295 45.4669 37.0526 44.6571 32.7705Z" fill="#B1C0CD"/>
<path fill-rule="evenodd" clip-rule="evenodd" d="M46.7977 4.58252C46.4009 4.58252 45.953 4.757 45.7699 5.19321C43.5665 8.67263 40.9964 11.8595 38.0554 14.7488C33.7194 18.9723 26.6718 24.0837 18.2957 24.0837C17.634 24.0837 17.1201 24.602 17.1201 25.2692V43.6414C17.1201 44.3085 17.634 44.8268 18.2957 44.8268C26.6718 44.8268 33.7194 49.9382 38.0554 54.2338C40.9964 57.0511 43.5665 60.3098 45.7699 63.7892C45.9988 64.1944 46.3703 64.3742 46.7365 64.3742C47.3221 64.3742 47.8967 63.9227 47.8967 63.199V5.78338C47.8967 5.26506 47.5306 4.74674 47.0166 4.59792C46.9502 4.58765 46.8742 4.58252 46.7977 4.58252Z" fill="#F6F7F8"/>
<path fill-rule="evenodd" clip-rule="evenodd" d="M17.1201 40.2393V43.6461C17.1201 44.3131 17.634 44.8313 18.2957 44.8313C26.6718 44.8313 33.7194 49.9416 38.0554 54.236C40.9964 57.0529 43.5665 60.3111 45.7699 63.7895C45.9988 64.1948 46.3703 64.3745 46.7365 64.3745C47.3221 64.3745 47.8967 63.923 47.8967 63.1998V57.4942C47.8967 57.9404 47.607 58.3818 47.0931 58.5307C46.9554 58.5919 46.823 58.6179 46.6911 58.6179C46.3244 58.6179 45.9835 58.3972 45.7699 58.0122C45.7699 58.0122 42.9048 55.4932 38.0554 50.7574C33.7194 46.4578 26.6718 41.3475 18.2957 41.3475C17.634 41.3475 17.1201 40.8293 17.1201 40.2393Z" fill="#F2F5F7"/>
<path fill-rule="evenodd" clip-rule="evenodd" d="M46.7133 0C46.1272 0 45.6123 0.518526 45.6123 1.11406V67.8142C45.6123 68.4815 46.1272 69 46.7133 69H53.5606C54.2232 69 54.738 68.4815 54.738 67.8142V1.11406C54.738 0.518526 54.2232 0 53.5606 0H46.7133Z" fill="#7E93A3"/>
<path fill-rule="evenodd" clip-rule="evenodd" d="M45.6123 63.2231V67.8864C45.6123 68.482 46.1272 69 46.7133 69H53.5606C54.2232 69 54.738 68.482 54.738 67.8864V63.2231C54.738 63.89 54.2232 64.408 53.5606 64.408H46.7133C46.1272 64.408 45.6123 63.89 45.6123 63.2231Z" fill="#D5DEE4"/>
<path fill-rule="evenodd" clip-rule="evenodd" d="M5.71695 24.1885C2.55601 24.1885 0.0527344 26.7023 0.0527344 29.8818V39.0464C0.0527344 42.2259 2.55601 44.8114 5.71695 44.8114H8.00113C8.66372 44.8114 9.1786 44.2943 9.1786 43.6287V25.2995C9.1786 24.7056 8.66372 24.1885 8.00113 24.1885H5.71695Z" fill="#AEBECB"/>
<path fill-rule="evenodd" clip-rule="evenodd" d="M2.4255 25.2002C0.955937 26.2407 0.00488281 28.0142 0.00488281 29.8646V39.0397C0.00488281 42.2227 2.57274 44.8112 5.72556 44.8112H8.004C8.66516 44.8112 9.1786 44.2935 9.1786 43.6272V41.3309H5.72556C3.81857 41.3309 2.27778 39.7778 2.27778 37.9274V26.4611C2.27778 26.0152 2.34901 25.5744 2.4255 25.2002Z" fill="#95A6B4"/>
<path fill-rule="evenodd" clip-rule="evenodd" d="M7.98828 24.1885V44.8114H19.3556V24.1885H7.98828Z" fill="#7E93A3"/>
<path fill-rule="evenodd" clip-rule="evenodd" d="M7.98828 41.3423V44.8116H19.3556V41.3423H7.98828Z" fill="#D5DEE4"/>
<path fill-rule="evenodd" clip-rule="evenodd" d="M7.98828 44.8169V62.1027C7.98828 62.6992 8.50267 63.2182 9.16431 63.2182H13.7222C14.2365 63.2182 14.6797 62.8481 14.8222 62.401L19.4565 44.8169H7.98828Z" fill="#7A8FA0"/>
<path fill-rule="evenodd" clip-rule="evenodd" d="M68.3869 33.3438C66.8385 33.3438 66.8385 35.6566 68.3869 35.6566H71.8524C73.3296 35.6566 73.3296 33.3438 71.8524 33.3438H68.3869Z" fill="#9DACB9"/>
<path fill-rule="evenodd" clip-rule="evenodd" d="M66.438 20.334C66.1636 20.334 65.8735 20.4463 65.6139 20.7066L63.2632 23.1366C62.5309 23.8002 63.0448 25.056 64.0726 25.056C64.3676 25.056 64.6625 24.9795 64.8815 24.76L67.2316 22.3249C68.0711 21.4826 67.3287 20.334 66.438 20.334Z" fill="#9DACB9"/>
<path fill-rule="evenodd" clip-rule="evenodd" d="M64.037 43.853C63.1397 43.853 62.3915 45.0082 63.2372 45.8643L65.683 48.319C65.9034 48.5459 66.2007 48.6181 66.4981 48.6181C67.5336 48.6181 67.9743 47.4269 67.3079 46.6842L64.8674 44.2243C64.6064 43.9613 64.3138 43.853 64.037 43.853Z" fill="#9DACB9"/>
</g>
<defs>
<clipPath id="clip0_10457_98479">
<rect width="73" height="69" fill="white"/>
</clipPath>
</defs>
</svg>
