<svg width="56" height="69" viewBox="0 0 56 69" fill="none" xmlns="http://www.w3.org/2000/svg">
<path fill-rule="evenodd" clip-rule="evenodd" d="M28.6832 65.2163C28.4446 65.2163 28.1909 65.3117 27.9719 65.5319L26.2955 67.2186C25.8677 67.6487 25.8677 68.3244 26.2955 68.71C26.4895 68.8999 26.7531 68.9953 27.0117 68.9953C27.2757 68.9953 27.5392 68.8999 27.7333 68.71L29.4048 67.0233C30.1758 66.2473 29.4792 65.2163 28.6832 65.2163Z" fill="#CDD8DF"/>
<path fill-rule="evenodd" clip-rule="evenodd" d="M28.8736 48.9468C26.89 48.9468 24.9113 49.7023 23.412 51.2232L12.3144 62.3358C11.2349 63.4216 9.80111 63.9618 8.36683 63.9618C6.933 63.9618 5.48893 63.4216 4.38451 62.3358L3.715 61.6654C1.55157 59.4537 1.55157 55.8913 3.715 53.7251L5.20404 52.2341C5.93854 51.4986 5.2392 50.4529 4.43971 50.4529C4.19488 50.4529 3.93981 50.5528 3.715 50.793L2.27094 52.2341C-0.756979 55.266 -0.756979 60.1241 2.27094 63.1564L2.89549 63.7818C4.40944 65.2977 6.37835 66.0532 8.35214 66.0532C10.3206 66.0532 12.2895 65.2977 13.8035 63.7818L24.9011 52.7141C25.9855 51.6087 27.4144 51.0582 28.8487 51.0582C30.2825 51.0582 31.7266 51.6087 32.831 52.7141C35.0394 54.8809 35.0394 58.4432 32.831 60.6545L29.4683 64.0216C28.7338 64.7575 29.4033 65.8032 30.2077 65.8032C30.4575 65.8032 30.7174 65.7029 30.9574 65.4675L34.32 62.1455C37.3479 59.1136 37.3479 54.2051 34.32 51.1781C32.811 49.6925 30.8421 48.9468 28.8736 48.9468Z" fill="#9BAFBF"/>
<path fill-rule="evenodd" clip-rule="evenodd" d="M8.17821 43.8159L1.80766 51.1817C1.47379 51.5169 1.51875 52.0473 1.85751 52.4329L3.58069 54.1641C3.75519 54.3393 3.97911 54.4195 4.20836 54.4195C4.42248 54.4195 4.64149 54.3496 4.82578 54.2092L12.1031 47.8093L8.17821 43.8159Z" fill="#41586F"/>
<path fill-rule="evenodd" clip-rule="evenodd" d="M10.1414 45.8662L2.7207 53.3234L3.58251 54.189C3.76147 54.3691 3.99562 54.464 4.23466 54.464C4.43899 54.464 4.64821 54.394 4.8276 54.234L12.1036 47.8368L10.1414 45.8662Z" fill="#324B64"/>
<path fill-rule="evenodd" clip-rule="evenodd" d="M35.8149 10.252L5.69336 45.2058C5.21348 45.7858 5.25844 46.6009 5.78817 47.1308L8.86595 50.2055C9.1455 50.4908 9.51008 50.6357 9.88 50.6357C10.1996 50.6357 10.5197 50.5256 10.7841 50.3005L45.7124 20.1566L45.4226 19.9666C41.4857 17.7067 38.2682 14.4368 36.0099 10.5419L35.8149 10.252Z" fill="#CBD5DE"/>
<path fill-rule="evenodd" clip-rule="evenodd" d="M40.0874 15.8682L7.30469 48.694L8.84446 50.2304C9.11422 50.5005 9.45922 50.6356 9.80911 50.6356C10.1443 50.6356 10.484 50.5157 10.764 50.2804L45.7114 20.1071L45.4212 19.962C43.4518 18.8059 41.6721 17.4597 40.0874 15.8682Z" fill="#B7C5D1"/>
<path fill-rule="evenodd" clip-rule="evenodd" d="M43.8549 0C40.7593 0 37.654 1.1805 35.2737 3.53651C25.4671 13.3507 30.228 17.2474 34.4587 21.4791C36.9489 23.9652 39.2093 26.5163 42.4549 26.5163C44.9803 26.5163 48.1008 24.9756 52.396 20.6588C57.1569 15.9468 57.1569 8.24853 52.396 3.53651C50.0407 1.1805 46.9505 0 43.8549 0Z" fill="#41586F"/>
<path fill-rule="evenodd" clip-rule="evenodd" d="M49.4639 1.38184C51.8686 6.04675 51.0037 11.7667 47.2542 15.5166C42.97 19.8265 39.8357 21.3765 37.301 21.3765C35.2213 21.3765 33.5466 20.3415 31.9668 18.9315C32.7369 19.7965 33.6014 20.6615 34.4663 21.4815C36.956 23.9664 39.2156 26.5164 42.4599 26.5164C44.9848 26.5164 48.104 24.9764 52.3983 20.6615C57.1574 15.9516 57.1574 8.2567 52.3983 3.5468C51.5334 2.68181 50.5238 1.96183 49.4639 1.38184Z" fill="#324B64"/>
<path fill-rule="evenodd" clip-rule="evenodd" d="M29.1378 24.1191C27.6452 24.1191 26.3975 25.3187 26.3975 26.8081C26.3975 28.3476 27.6452 29.5471 29.1378 29.5471C30.6251 29.5471 31.8728 28.3476 31.8728 26.8081C31.8728 25.3187 30.6251 24.1191 29.1378 24.1191Z" fill="#41586F"/>
<path fill-rule="evenodd" clip-rule="evenodd" d="M29.8232 62.4478C29.5445 62.4478 29.2658 62.5824 29.0869 62.8422L27.2204 65.3388C26.9319 65.723 26.9818 66.2022 27.2702 66.5369L28.4147 67.6901C28.6039 67.8751 28.8478 67.9749 29.0967 67.9749C29.2957 67.9749 29.4897 67.9152 29.6589 67.785L32.1473 65.9129C32.58 65.5282 32.6298 64.8543 32.2466 64.475L30.4749 62.7424C30.2959 62.5476 30.0622 62.4478 29.8232 62.4478Z" fill="#41586F"/>
</svg>
