<svg width="96" height="69" viewBox="0 0 96 69" fill="none" xmlns="http://www.w3.org/2000/svg">
<g clip-path="url(#clip0_10457_98402)">
<path fill-rule="evenodd" clip-rule="evenodd" d="M74.27 24.4927C71.6796 24.4927 69.667 26.5968 69.667 29.0859V30.1413C69.667 31.482 69.8598 32.8228 70.3381 34.0707L72.7357 41.3521H77.3387V24.4927H74.27Z" fill="#78668C"/>
<path fill-rule="evenodd" clip-rule="evenodd" d="M77.3397 22.9839C74.7333 22.9839 72.709 24.9924 72.709 27.571C72.709 29.2017 74.0588 30.6335 75.7963 30.6335L88.1443 41.3523L90.7506 32.2642C91.1314 31.2102 91.2317 30.0634 91.2317 28.9166V26.0464C91.2317 24.3229 89.8818 22.9839 88.1443 22.9839H77.3397Z" fill="#6F5C85"/>
<path fill-rule="evenodd" clip-rule="evenodd" d="M75.8184 45.9541V52.7444H85.0797V45.9541H75.8184Z" fill="#B7AAC8"/>
<path fill-rule="evenodd" clip-rule="evenodd" d="M75.8184 45.9541V48.7978C77.3154 49.3691 78.8788 49.651 80.449 49.651C82.0124 49.651 83.5827 49.3691 85.0797 48.7978V45.9541H75.8184Z" fill="#A294B3"/>
<path fill-rule="evenodd" clip-rule="evenodd" d="M75.933 49.6582L68.4106 51.7673C66.4864 52.338 65.0371 54.1617 65.0371 56.2646V67.4679C65.0371 68.2375 65.8119 69.0002 66.5804 69.0002H94.4508C95.2256 69.0002 95.9935 68.2375 95.9935 67.4679V56.2646C95.9935 54.1617 94.5441 52.338 92.5198 51.7673L85.1916 49.6582L80.5623 52.7227L75.933 49.6582Z" fill="#F2EFF5"/>
<path fill-rule="evenodd" clip-rule="evenodd" d="M79.6903 52.7515L78.9355 69.0001H81.9697L81.208 52.7515H79.6903Z" fill="#C7BCD4"/>
<path fill-rule="evenodd" clip-rule="evenodd" d="M77.169 30.5903C76.3002 30.5903 75.4314 30.8824 74.8571 31.4532L72.0572 34.2344C71.476 34.8118 71.1885 35.6681 71.1885 36.438V38.2567C71.1885 43.3345 75.3381 47.4562 80.4498 47.4562C85.5615 47.4562 89.7112 43.3345 89.7112 38.2567V36.2455C89.7112 35.4822 89.4174 34.7123 88.8424 34.1414C86.4303 31.8382 82.0871 30.7828 77.169 30.5903Z" fill="#C7BCD4"/>
<path fill-rule="evenodd" clip-rule="evenodd" d="M77.169 30.5903C76.3002 30.5903 75.5316 30.9763 74.9504 31.5552L72.1506 34.3368C71.476 34.9158 71.1885 35.681 71.1885 36.4529V38.2763C71.1885 42.4087 73.8881 46.0621 77.9437 47.1133C76.5877 45.4832 75.8191 43.4669 75.8191 41.3507V36.8389C75.8191 35.2152 77.1821 33.8444 78.7862 33.8444C78.8927 33.8444 78.9929 33.8444 79.1 33.8577C82.1873 34.0507 86.818 34.5298 89.7112 35.874C89.6109 35.2019 89.3234 34.6296 88.8424 34.1505C86.4303 31.8414 82.0871 30.7833 77.169 30.5903Z" fill="#B7AAC8"/>
<path fill-rule="evenodd" clip-rule="evenodd" d="M95.0907 53.5742L91.0607 57.5098C90.196 58.374 89.7178 59.5243 89.7178 60.7739V68.9312H94.3256C95.1903 68.9312 95.8621 68.2597 95.8621 67.3955V56.1669C95.8621 55.3027 95.5697 54.3383 95.0907 53.5742Z" fill="#EDE9F1"/>
<path fill-rule="evenodd" clip-rule="evenodd" d="M78.9355 52.7515V55.0581C78.9355 55.5444 79.3164 55.8311 79.6903 55.8311H81.208C81.5889 55.8311 81.9697 55.5444 81.9697 55.0581V52.7515H78.9355Z" fill="#85739B"/>
<path fill-rule="evenodd" clip-rule="evenodd" d="M75.592 48.4233C75.3784 48.4233 75.1649 48.5303 75.0584 48.697L74.0908 50.1408L76.4995 54.4845C76.6197 54.7856 76.9266 54.9324 77.2604 54.9324C77.4601 54.9324 77.6668 54.8789 77.8472 54.7719L80.4493 52.7472L76.0191 48.5969C75.8989 48.4768 75.7454 48.4233 75.592 48.4233Z" fill="#EDE9F1"/>
<path fill-rule="evenodd" clip-rule="evenodd" d="M85.3079 48.4233C85.1545 48.4233 85.0017 48.4768 84.8814 48.5969L80.4561 52.7472L83.0554 54.7719C83.2351 54.8789 83.4418 54.9324 83.6415 54.9324C83.9684 54.9324 84.2815 54.7856 84.4018 54.4845L86.8077 50.1408L85.8414 48.697C85.7343 48.5303 85.5214 48.4233 85.3079 48.4233Z" fill="#EDE9F1"/>
<path fill-rule="evenodd" clip-rule="evenodd" d="M14.1682 23.5259C8.08755 23.5259 3.65068 28.3201 3.16957 34.3561C2.88226 38.5793 1.91335 42.7959 0.563543 46.9125C0.276234 47.6834 0.663759 48.5462 1.43224 48.8316C3.94469 49.9804 6.73781 50.844 9.43736 51.2287H18.8925C21.6923 50.844 24.3918 49.9804 26.9978 48.8316C27.6727 48.4468 28.0536 47.6834 27.7662 46.9125C26.4165 42.7959 25.5478 38.5793 25.1603 34.3561C24.7794 28.4131 20.2422 23.5259 14.1682 23.5259Z" fill="#78668C"/>
<path fill-rule="evenodd" clip-rule="evenodd" d="M14.1586 23.5259C9.52452 23.7182 7.87953 29.8454 11.8383 32.2393C12.0321 32.3322 12.1325 32.3322 12.3197 32.4316L15.7969 51.0984H18.9866C21.6883 50.7137 24.3898 49.9448 26.9977 48.7973C27.6731 48.512 28.0542 47.6505 27.7667 46.8809C26.416 42.7696 25.5466 38.5588 25.1588 34.3414C24.7777 28.4064 20.2371 23.5259 14.1586 23.5259Z" fill="#6F5C85"/>
<path fill-rule="evenodd" clip-rule="evenodd" d="M9.3297 44.377V48.9765C9.3297 50.2241 8.65479 51.2728 7.69258 51.7571L2.67439 54.2462C1.03727 55.0095 0.0683594 56.6419 0.0683594 58.3676V67.4673C0.0683594 68.2368 0.743263 69.0002 1.61189 69.0002H26.3088C27.1775 69.0002 27.8524 68.2368 27.8524 67.4673V58.3676C27.8524 56.6419 26.8835 55.0095 25.3399 54.2462L20.3284 51.7571C19.2659 51.2728 18.591 50.2241 18.591 48.9765V44.377H9.3297Z" fill="#B7AAC8"/>
<path fill-rule="evenodd" clip-rule="evenodd" d="M9.36214 44.377V49.0067C9.36214 49.2001 9.26855 49.3942 9.26855 49.6816C10.8132 50.2625 12.3512 50.5499 13.9962 50.5499C15.6345 50.5499 17.1792 50.2625 18.7238 49.6816C18.6302 49.3942 18.6302 49.2001 18.6302 49.0067V44.377H9.36214Z" fill="#A294B3"/>
<path fill-rule="evenodd" clip-rule="evenodd" d="M6.17413 52.4771L2.60326 54.2898C0.967943 55.0512 0.00683594 56.6788 0.00683594 58.399V67.4712C0.00683594 68.2394 0.680979 69 1.54864 69H26.2113C27.079 69 27.7531 68.2394 27.7531 67.4712V58.399C27.8533 56.6788 26.8854 55.0512 25.3436 54.2898L21.7793 52.4771C19.9505 55.296 16.9603 56.6987 13.9767 56.6987C10.9866 56.6987 8.00296 55.296 6.17413 52.4771Z" fill="#F2EFF5"/>
<path fill-rule="evenodd" clip-rule="evenodd" d="M11.9364 32.4492C11.2882 32.4492 10.7403 32.7402 10.4864 33.3289C9.91169 34.374 9.23679 35.333 8.36816 36.0937C7.49946 36.7617 6.53061 37.4298 5.56833 37.9126C4.98701 38.197 4.6997 38.8651 4.79992 39.533C5.3746 44.0175 9.33037 47.4567 13.961 47.4567C18.7855 47.4567 22.8349 43.7331 23.2224 38.9576C23.2224 38.5806 23.0286 38.0978 22.6411 37.8134C19.6541 35.2338 15.9857 33.4215 12.2237 32.4691C12.1301 32.4559 12.0299 32.4492 11.9364 32.4492Z" fill="#C7BCD4"/>
<path fill-rule="evenodd" clip-rule="evenodd" d="M11.9855 32.4487C11.3762 32.4487 10.7535 32.7403 10.499 33.3302C10.1107 34.0924 9.62855 34.7618 9.05276 35.4312C8.85855 35.6234 8.6644 35.9084 8.37647 36.1006C7.59976 36.77 6.63562 37.4394 5.6647 37.9233C5.08891 38.2082 4.70055 38.8777 4.80097 39.5471C5.37684 43.5635 8.56398 46.8175 12.6283 47.3944C10.499 46.1483 9.34069 43.8551 9.34069 41.4625V39.262C9.72905 38.9705 10.1107 38.6855 10.4053 38.4004C11.2758 37.6316 12.0458 36.77 12.6283 35.8156C15.6213 36.77 18.3263 38.2082 20.7435 40.1237C21.038 40.4087 21.7143 41.078 22.5848 41.8403C22.9664 40.9787 23.261 40.0243 23.261 39.0698C23.3548 38.5927 23.1606 38.1089 22.779 37.8239C19.6855 35.3384 16.1033 33.5158 12.2399 32.4686C12.1529 32.4553 12.0725 32.4487 11.9855 32.4487Z" fill="#B7AAC8"/>
<path fill-rule="evenodd" clip-rule="evenodd" d="M1.04343 55.625C0.458372 56.3925 0.0683594 57.3459 0.0683594 58.398V67.4709C0.0683594 68.2384 0.848386 68.9998 1.62178 68.9998H6.28196V61.2637C6.28196 60.3041 5.89187 59.4433 5.11855 58.8747L1.04343 55.625Z" fill="#EDE9F1"/>
<path fill-rule="evenodd" clip-rule="evenodd" d="M38.7867 47.4634L25.853 52.1514C23.3465 53.0136 21.709 55.314 21.709 57.9005V67.4686C21.709 68.2375 22.4776 69.0002 23.2529 69.0002H72.7475C73.617 69.0002 74.2915 68.2375 74.2915 67.4686V57.9005C74.2915 55.314 72.6542 53.0136 70.2414 52.1514L57.308 47.4634L48.0508 50.5265L38.7867 47.4634Z" fill="#A79AB7"/>
<path fill-rule="evenodd" clip-rule="evenodd" d="M46.3837 53.5742L44.9316 68.9998H51.145L49.686 53.5742H46.3837Z" fill="#A191B8"/>
<path fill-rule="evenodd" clip-rule="evenodd" d="M45.3389 50.5566V54.6466C45.3389 55.2131 45.8254 55.6871 46.3984 55.6871H49.6703C50.2501 55.6871 50.7298 55.2131 50.7298 54.6466V50.5566H45.3389Z" fill="#78668C"/>
<path fill-rule="evenodd" clip-rule="evenodd" d="M72.6556 53.7803L66.8735 59.5232C65.7117 60.6707 65.0371 62.2022 65.0371 63.8271V69H72.7496C73.6177 69 74.2915 68.2373 74.2915 67.4678V57.8983C74.2915 56.3667 73.711 54.8345 72.6556 53.7803Z" fill="#9383A7"/>
<path fill-rule="evenodd" clip-rule="evenodd" d="M43.4018 0C36.5449 0 31.0391 5.45237 31.0391 12.243V15.8736C31.0391 17.5033 31.2331 19.1264 31.8084 20.6569L32.2967 22.1872C32.484 22.6642 32.5844 23.1412 32.5844 23.6248V24.4861H63.4844V23.7176C63.4844 23.2406 63.4844 22.6642 63.6786 22.1872L64.1603 20.7562C64.7423 19.1264 65.0298 17.5033 65.0298 15.8736V3.06076C65.0298 1.33823 63.6786 0 61.939 0H43.4018Z" fill="#78668C"/>
<path fill-rule="evenodd" clip-rule="evenodd" d="M45.0517 0C41.5746 0 38.7803 2.77591 38.7803 6.21425C38.7803 9.65931 41.5746 12.4352 45.0517 12.4352H45.9212L46.3089 24.4861H63.486V23.7176C63.486 23.2406 63.4859 22.6642 63.6795 22.1872L64.1612 20.7562C64.7424 19.1264 65.03 17.5033 65.03 15.8736V3.06076C65.03 1.33823 63.5862 0 61.9412 0H45.0517Z" fill="#6F5C85"/>
<path fill-rule="evenodd" clip-rule="evenodd" d="M38.7803 36.7632V50.5495H57.2891V36.7632H38.7803Z" fill="#B7AAC8"/>
<path fill-rule="evenodd" clip-rule="evenodd" d="M38.7803 36.7632V41.933C41.6257 43.6033 44.805 44.4451 47.9981 44.4451C51.1912 44.4451 54.3974 43.6033 57.2891 41.933V36.7632H38.7803Z" fill="#A294B3"/>
<path fill-rule="evenodd" clip-rule="evenodd" d="M38.4264 44.9321C37.8514 44.9321 37.2826 45.25 37.0213 45.8329L35.6699 48.6012L40.6947 55.2968C41.0023 55.7077 41.4778 55.8929 41.9595 55.8929C42.3742 55.8929 42.7889 55.7543 43.1034 55.4889L48.0347 50.5155L39.2427 45.164C38.9883 45.005 38.7077 44.9321 38.4264 44.9321Z" fill="#9383A7"/>
<path fill-rule="evenodd" clip-rule="evenodd" d="M57.6434 44.9321C57.3621 44.9321 57.0815 45.005 56.8271 45.164L48.042 50.5155L52.9664 55.4889C53.2809 55.7543 53.6755 55.8929 54.0701 55.8929C54.5249 55.8929 54.9735 55.7077 55.281 55.2968L60.3996 48.6012L59.0485 45.8329C58.7872 45.25 58.2184 44.9321 57.6434 44.9321Z" fill="#9383A7"/>
<path fill-rule="evenodd" clip-rule="evenodd" d="M46.1299 12.3525C42.1144 12.3525 38.6124 13.0432 36.8645 13.4549C36.1913 13.5545 35.7107 14.2252 35.7107 14.8959V18.6346C35.7107 19.3982 35.3238 20.1685 34.7502 20.8393L33.4961 22.0877C32.9157 22.6588 32.6289 23.4291 32.6289 24.1928V26.0189C32.6289 34.5455 39.4666 41.3522 48.0382 41.3522C56.5096 41.3522 63.4404 34.4526 63.4404 26.0189V24.1928C63.4404 23.4291 63.1536 22.5658 62.5737 21.9881L61.3262 20.7463C60.6523 20.1685 60.3586 19.3982 60.3586 18.6346V17.7713C60.3586 17.1006 60.0717 16.5229 59.5914 16.1443C55.5627 13.1826 50.5332 12.3525 46.1299 12.3525Z" fill="#C7BCD4"/>
<path fill-rule="evenodd" clip-rule="evenodd" d="M45.8894 12.4209C44.4601 12.4209 43.1103 12.5004 41.8877 12.6197C40.1508 12.8053 38.508 13.0968 36.8707 13.4746C36.1028 13.6667 35.6151 14.2433 35.6151 15.0054V18.6435C35.6151 19.4056 35.3278 20.1743 34.7533 20.8437L33.4973 22.0895C32.9161 22.6594 32.6289 23.4282 32.6289 24.2897V26.0127C32.6289 33.7595 38.414 40.2605 46.1299 41.2214C43.431 38.3519 41.8877 34.621 41.8877 30.5985V19.4056C41.8877 17.8814 43.044 16.5362 44.5866 16.3506C45.756 16.2247 47.2392 16.1121 48.8959 16.1121C52.4228 16.1121 56.7252 16.6224 60.3993 18.6435V17.782C60.3993 17.2055 60.1125 16.6356 59.6315 16.2512C55.4694 13.2161 50.319 12.4209 45.8894 12.4209Z" fill="#B7AAC8"/>
<path fill-rule="evenodd" clip-rule="evenodd" d="M23.4153 53.7803C22.3528 54.8345 21.7715 56.3667 21.7715 57.8983V67.4678C21.7715 68.2373 22.4464 69 23.315 69H31.0328V63.8271C31.0328 62.2022 30.3579 60.6707 29.202 59.5232L23.4153 53.7803Z" fill="#9383A7"/>
</g>
<defs>
<clipPath id="clip0_10457_98402">
<rect width="96" height="69" fill="white"/>
</clipPath>
</defs>
</svg>
