<svg width="32" height="32" viewBox="0 0 32 32" fill="none" xmlns="http://www.w3.org/2000/svg">
<path d="M24 28V26C24 24.9391 23.5786 23.9217 22.8284 23.1716C22.0783 22.4214 21.0609 22 20 22H12C10.9391 22 9.92172 22.4214 9.17157 23.1716C8.42143 23.9217 8 24.9391 8 26V28" stroke="white" stroke-width="2" stroke-linecap="round" stroke-linejoin="round"/>
<path d="M16 18C18.2091 18 20 16.2091 20 14C20 11.7909 18.2091 10 16 10C13.7909 10 12 11.7909 12 14C12 16.2091 13.7909 18 16 18Z" stroke="white" stroke-width="2" stroke-linecap="round" stroke-linejoin="round"/>
<circle cx="16" cy="16" r="15" stroke="white" stroke-width="2"/>
</svg>
