<svg width="214" height="163" viewBox="0 0 214 163" fill="none" xmlns="http://www.w3.org/2000/svg">
<path d="M211.413 19.576L194.642 2.68309C193.82 1.841 192.839 1.17036 191.757 0.70988C190.675 0.2494 189.512 0.00820523 188.336 0.000205731C187.16 -0.00779377 185.994 0.217567 184.906 0.663279C183.817 1.10899 182.828 1.76623 181.994 2.59706L76.6788 107.191L32.1491 62.2403C30.4957 60.5605 28.2438 59.6073 25.8887 59.5904C23.5337 59.5735 21.2684 60.4943 19.5911 62.1502L2.63988 78.9488C0.964689 80.6246 0.0162873 82.8941 0.000207825 85.2655C-0.0158716 87.6368 0.90167 89.919 2.55398 91.6174L70.1789 159.885C71.8514 161.564 74.1169 162.515 76.4844 162.531C78.8519 162.548 81.1307 161.63 82.8269 159.976L211.319 32.2405C212.16 31.4175 212.829 30.436 213.29 29.3526C213.75 28.2691 213.991 27.1052 214 25.9278C214.008 24.7505 213.784 23.5831 213.341 22.4929C212.897 21.4027 212.242 20.4113 211.413 19.576Z" fill="#06BE34"/>
</svg>
