<svg width="93" height="82" viewBox="0 0 93 82" fill="none" xmlns="http://www.w3.org/2000/svg">
<path d="M51 43.5254C48.5718 41.2281 45.2784 39.9375 41.8443 39.9375H15.9481C12.5141 39.9375 9.22065 41.2281 6.79241 43.5254C4.36417 45.8228 3 48.9386 3 52.1875V58.3125" stroke="#A0A0A0" stroke-width="6" stroke-linecap="round" stroke-linejoin="round"/>
<path d="M29 27.6875C35.6274 27.6875 41 22.203 41 15.4375C41 8.67201 35.6274 3.1875 29 3.1875C22.3726 3.1875 17 8.67201 17 15.4375C17 22.203 22.3726 27.6875 29 27.6875Z" stroke="#A0A0A0" stroke-width="6" stroke-linecap="round" stroke-linejoin="round"/>
<path d="M58 71.0005V36.3338L90 31.0005V65.6672" stroke="#A0A0A0" stroke-width="6" stroke-linecap="round" stroke-linejoin="round"/>
<path d="M50 79.0005C54.4183 79.0005 58 75.4188 58 71.0005C58 66.5822 54.4183 63.0005 50 63.0005C45.5817 63.0005 42 66.5822 42 71.0005C42 75.4188 45.5817 79.0005 50 79.0005Z" stroke="#A0A0A0" stroke-width="6" stroke-linecap="round" stroke-linejoin="round"/>
<path d="M82 73.667C86.4183 73.667 90 70.0853 90 65.667C90 61.2487 86.4183 57.667 82 57.667C77.5817 57.667 74 61.2487 74 65.667C74 70.0853 77.5817 73.667 82 73.667Z" stroke="#A0A0A0" stroke-width="6" stroke-linecap="round" stroke-linejoin="round"/>
</svg>
