<svg width="70" height="69" viewBox="0 0 70 69" fill="none" xmlns="http://www.w3.org/2000/svg">
<path fill-rule="evenodd" clip-rule="evenodd" d="M0.276116 0.00390625C0.140499 0.00390625 0.00488281 0.133955 0.00488281 0.203604V17.0983C0.00488281 17.2329 0.140499 17.298 0.276116 17.298H51.5094C51.5794 17.298 51.7106 17.2329 51.7106 17.0983V0.203604C51.7106 0.133955 51.5794 0.00390625 51.5094 0.00390625H0.276116Z" fill="#F4F5F7"/>
<path fill-rule="evenodd" clip-rule="evenodd" d="M0.277061 40.9307C0.141444 40.9307 0.00585938 41.065 0.00585938 41.1949V57.9885C0.00585938 58.1229 0.141444 58.2527 0.277061 58.2527H44.0138L44.5516 58.3222H44.6216L45.0939 58.0535C45.4305 57.8542 45.7017 57.7198 46.0383 57.5854L53.8655 54.5084C53.9359 54.5084 54.0013 54.4434 54.0013 54.3091V50.9633C54.0013 50.8983 54.0013 50.8289 53.9359 50.764L53.1269 50.3609C51.7053 49.5592 50.6252 48.2896 50.2232 46.7512L49.8866 45.611C49.8866 45.4767 49.7509 45.4118 49.6809 45.4118H48.4696C47.2541 45.4118 46.2395 44.4063 46.2395 43.2016C46.2395 43.0717 46.2395 43.0023 46.2395 42.8679L46.4406 41.1949C46.4406 41.065 46.3752 40.9307 46.2395 40.9307H0.277061Z" fill="#F4F5F7"/>
<path fill-rule="evenodd" clip-rule="evenodd" d="M51.5804 20.4795C51.5572 20.4795 51.5336 20.4841 51.5104 20.4981H0.277093C0.141476 20.4981 0.00585938 20.563 0.00585938 20.6975V37.574C0.00585938 37.7087 0.141476 37.7736 0.277093 37.7736H45.9081C46.0439 37.7736 46.1093 37.7087 46.1793 37.574L46.245 36.2333C46.5162 33.4872 48.0686 32.216 50.7669 30.8103L51.6461 30.4069C51.7116 30.342 51.7116 30.2722 51.7116 30.2073V20.6975C51.7116 20.5908 51.6694 20.4795 51.5804 20.4795Z" fill="#F4F5F7"/>
<path fill-rule="evenodd" clip-rule="evenodd" d="M18.1063 5.55469C16.5896 5.55469 16.5896 7.85434 18.1063 7.85434C18.1485 7.85434 18.1907 7.84967 18.2329 7.84967H30.7361C30.7783 7.84967 30.8205 7.85434 30.8627 7.85434C32.384 7.85434 32.384 5.55469 30.8627 5.55469C30.8205 5.55469 30.7783 5.55469 30.7361 5.55933H18.2329C18.1907 5.55469 18.1485 5.55469 18.1063 5.55469Z" fill="#CDD7DF"/>
<path fill-rule="evenodd" clip-rule="evenodd" d="M18.1058 10.5806C16.5897 10.5806 16.5897 12.7875 18.1058 12.7875C18.148 12.7875 18.1902 12.7875 18.2321 12.7829H43.2934C44.7114 12.6493 44.7114 10.6543 43.2934 10.5852H18.2321C18.1902 10.5852 18.148 10.5806 18.1058 10.5806Z" fill="#CDD7DF"/>
<path fill-rule="evenodd" clip-rule="evenodd" d="M18.1063 26.0659C16.5896 26.0659 16.5896 28.3332 18.1063 28.3332C18.1485 28.3332 18.1907 28.3332 18.2329 28.3287H30.7361C30.7783 28.3332 30.8205 28.3332 30.8627 28.3332C32.384 28.3332 32.384 26.0659 30.8627 26.0659C30.8205 26.0659 30.7783 26.0659 30.7361 26.0705H18.2329C18.1907 26.0659 18.1485 26.0659 18.1063 26.0659Z" fill="#CDD7DF"/>
<path fill-rule="evenodd" clip-rule="evenodd" d="M18.0481 31.0596C16.5892 31.0596 16.6079 33.2944 18.1043 33.2944C18.1465 33.2944 18.1884 33.2944 18.2306 33.2896H43.0044C44.3557 33.1546 44.3557 31.1388 43.0044 31.0735H18.2306C18.1698 31.0641 18.1089 31.0596 18.0481 31.0596Z" fill="#CDD7DF"/>
<path fill-rule="evenodd" clip-rule="evenodd" d="M18.1063 46.541C16.5896 46.541 16.5896 48.8408 18.1063 48.8408C18.1485 48.8408 18.1907 48.8408 18.2329 48.8359H30.7361C30.7783 48.8408 30.8205 48.8408 30.8627 48.8408C32.384 48.8408 32.384 46.541 30.8627 46.541C30.8205 46.541 30.7783 46.541 30.7361 46.5456H18.2329C18.1907 46.541 18.1485 46.541 18.1063 46.541Z" fill="#CDD7DF"/>
<path fill-rule="evenodd" clip-rule="evenodd" d="M18.1044 51.5063C16.5889 51.5063 16.5889 53.7737 18.1044 53.7737C18.1462 53.7737 18.1884 53.7737 18.2306 53.7691H42.8072C42.8494 53.7737 42.8916 53.7737 42.9334 53.7737C44.4535 53.7737 44.4535 51.5063 42.9334 51.5063C42.8916 51.5063 42.8494 51.5109 42.8072 51.5109H18.2306C18.1884 51.5109 18.1462 51.5063 18.1044 51.5063Z" fill="#CDD7DF"/>
<path fill-rule="evenodd" clip-rule="evenodd" d="M10.8045 4.34912C10.7437 4.34912 10.6829 4.35376 10.6174 4.36304H4.94603C4.26755 4.36304 3.79492 4.83199 3.79492 5.4356V12.9435C3.79492 13.5471 4.26755 14.0811 4.94603 14.0811H12.8495C13.4579 14.0811 13.9302 13.5471 13.9302 12.9435V10.933C13.9959 10.0926 13.4062 9.67475 12.8118 9.67475C12.2224 9.67475 11.6326 10.0926 11.6984 10.933V11.8013H6.02697V6.57315H10.6174C10.6642 6.5778 10.7063 6.5778 10.7437 6.5778C12.2456 6.5778 12.2646 4.34912 10.8045 4.34912Z" fill="#627789"/>
<path fill-rule="evenodd" clip-rule="evenodd" d="M14.2735 4.28857C13.9935 4.28857 13.6994 4.40457 13.4518 4.68758L9.6752 8.64041L8.53142 7.43414C8.27932 7.15113 7.98519 7.03514 7.70042 7.03514C6.84609 7.03514 6.08515 8.10224 6.84609 8.9095L8.79752 11.0483C9.00294 11.3174 9.33907 11.4519 9.6752 11.4519C10.0113 11.4519 10.2821 11.3174 10.5529 11.1179L15.1325 6.22788C15.8936 5.3742 15.1279 4.28857 14.2735 4.28857Z" fill="#698194"/>
<path fill-rule="evenodd" clip-rule="evenodd" d="M4.94659 24.8003C4.26775 24.8003 3.79492 25.333 3.79492 25.9352V33.4252C3.79492 34.0273 4.26775 34.5602 4.94659 34.5602H12.8537C13.4621 34.5602 13.9351 34.0273 13.9351 33.4252V31.4195C13.8648 30.7155 13.3264 30.3634 12.7929 30.3634C12.259 30.3634 11.7347 30.7155 11.702 31.4195V32.2857H6.02802V27.0747H10.6206C12.0392 26.9403 12.0392 24.9346 10.6206 24.8003H4.94659Z" fill="#627789"/>
<path fill-rule="evenodd" clip-rule="evenodd" d="M14.2739 24.7959C13.9939 24.7959 13.6998 24.9166 13.4525 25.1952L9.67753 29.1504L8.53431 27.8785C8.28699 27.614 7.9977 27.5072 7.72238 27.5072C6.85912 27.5072 6.08454 28.5562 6.8498 29.4198L8.80028 31.5648C9.0056 31.8293 9.34157 31.964 9.67753 31.964C10.0135 31.964 10.2841 31.8293 10.5548 31.5648L15.1322 26.7364C15.893 25.8822 15.1276 24.7959 14.2739 24.7959Z" fill="#698194"/>
<path fill-rule="evenodd" clip-rule="evenodd" d="M10.747 45.2798C10.7095 45.2798 10.6674 45.2798 10.6206 45.2847H4.94659C4.26775 45.2847 3.79492 45.8169 3.79492 46.419V53.9054C3.79492 54.5072 4.26775 55.0398 4.94659 55.0398H12.8537C13.4621 54.9748 13.9351 54.5072 13.9351 53.8405V51.8358C13.8648 51.1646 13.3264 50.8309 12.7929 50.8309C12.259 50.8309 11.7347 51.1646 11.702 51.8358V52.7711H6.02802V47.5578H10.6206C10.6674 47.5578 10.7095 47.5624 10.747 47.5624C12.2685 47.5624 12.2685 45.2798 10.747 45.2798Z" fill="#627789"/>
<path fill-rule="evenodd" clip-rule="evenodd" d="M14.274 45.2749C13.994 45.2749 13.6999 45.3953 13.4526 45.678L9.67762 49.621L8.53439 48.3517C8.28243 48.069 7.99311 47.9531 7.70846 47.9531C6.85456 47.9531 6.0893 49.0326 6.84988 49.8897L8.80036 52.0305C9.00568 52.2298 9.34165 52.3641 9.67762 52.3641C9.7383 52.3781 9.78962 52.3826 9.84562 52.3826C10.1069 52.3826 10.3309 52.2528 10.5549 52.0305L15.1323 47.2164C15.8931 46.3592 15.1277 45.2749 14.274 45.2749Z" fill="#698194"/>
<path fill-rule="evenodd" clip-rule="evenodd" d="M51.4435 53.3936L44.6283 56.1331C43.9506 56.3369 43.3428 56.7355 42.8054 57.1389L42.6042 57.2733L42.5342 57.4076L42.4688 57.4725L42.263 57.6069C41.0524 58.812 40.3093 60.351 40.0381 62.089V62.358V62.423V62.6917V62.826V62.891V63.2295V64.3002V67.5772C40.0989 68.3697 40.7253 69 41.5012 69C41.5758 69 41.6507 68.9955 41.7256 68.9815H68.3132C68.3881 68.9955 68.463 69 68.5376 69C69.323 69 69.9961 68.3697 69.9961 67.5772V64.3002V63.2295H69.6596V62.891V62.826V62.6917V62.423V62.358V62.089C69.4584 60.351 68.6498 58.812 67.4346 57.6069L67.2334 57.4725L67.1634 57.4076L67.098 57.2733L66.8923 57.1389C66.3548 56.7355 65.7471 56.3369 65.0739 56.1331L58.2587 53.3936L56.5712 55.1319L54.884 56.8049L53.131 55.1319L51.4435 53.3936Z" fill="#D5DEE4"/>
<path fill-rule="evenodd" clip-rule="evenodd" d="M51.2347 53.4536L44.4994 56.064C41.6009 57.1999 39.7152 60.079 39.8506 63.2272V67.5762C39.8506 68.3691 40.5228 68.9997 41.3114 68.9997C41.3814 68.9997 41.4609 68.9952 41.5355 68.9812H41.8718V63.2272C41.7363 60.079 43.6221 57.1999 46.5205 56.064L51.9115 53.9914L51.2347 53.4536Z" fill="#91A8B8"/>
<path fill-rule="evenodd" clip-rule="evenodd" d="M61.9856 40.1129L61.9061 40.1918L61.9156 40.1823L61.9856 40.1129ZM61.8499 40.1823V40.2473V40.317L61.7799 40.4517L61.8499 40.2473L61.6441 40.3819L61.8499 40.1823ZM54.3536 28.7925C49.294 28.7925 45.2441 32.8121 45.2441 37.769V42.0576C45.2441 42.0576 47.3347 41.858 47.6058 40.8509C47.6712 40.7162 47.7416 40.6513 47.807 40.5166C48.9574 40.5166 54.424 40.4517 57.5946 36.6966C58.2727 38.507 59.7551 39.9133 61.6441 40.4517C61.7144 40.5815 61.7799 40.7162 61.8499 40.7857C62.1214 41.7882 64.2115 41.9924 64.2115 41.9924V37.769C64.1461 32.8121 60.0917 28.7925 55.0975 28.7925H54.3536Z" fill="#5C7285"/>
<path fill-rule="evenodd" clip-rule="evenodd" d="M54.3595 28.7227C49.362 28.7227 45.2441 32.813 45.2441 37.7718V41.9969C45.7822 41.9271 46.3252 41.7927 46.8633 41.5928V40.1164V37.7718C46.8633 32.9477 50.6443 28.992 55.5106 28.7227H54.3595Z" fill="#607588"/>
<path fill-rule="evenodd" clip-rule="evenodd" d="M62.7296 40.6665C62.1035 40.6665 61.5615 41.1494 61.5615 41.781V45.0694C61.5615 45.701 62.1035 46.1839 62.7296 46.1839C62.8326 46.1839 62.9399 46.17 63.0475 46.1421C63.2484 46.0726 63.5196 45.9379 63.7204 45.8727C63.9212 45.6731 64.127 45.4686 64.3278 45.3339C65.7439 43.792 65.071 41.312 63.0475 40.7084C62.9399 40.6805 62.8326 40.6665 62.7296 40.6665Z" fill="#9DACB9"/>
<path fill-rule="evenodd" clip-rule="evenodd" d="M46.7672 40.7358C46.6403 40.7358 46.5131 40.7592 46.3907 40.8053C43.6731 41.606 43.6731 45.3461 46.3907 46.1513C46.5131 46.1932 46.6403 46.2162 46.7581 46.2162C47.3655 46.2162 47.8882 45.6931 47.8882 45.0823V41.8747C47.8882 41.4719 47.6812 41.1386 47.4126 40.9397C47.2337 40.8098 47.0027 40.7358 46.7672 40.7358Z" fill="#B7C5D1"/>
<path fill-rule="evenodd" clip-rule="evenodd" d="M52.3811 50.3428C51.7658 50.3428 51.2578 50.8702 51.2578 51.4482V54.7879C51.2578 55.0517 51.3929 55.3893 51.598 55.5882L53.8815 57.79C54.0866 57.9935 54.4222 58.1275 54.6924 58.1275C55.028 58.1275 55.2982 57.9935 55.5641 57.79L57.9222 55.3198C58.1224 55.1209 58.1878 54.8528 58.1878 54.5844V51.4482C58.1878 51.1152 58.0527 50.9163 57.8522 50.7128C57.582 50.5141 57.3164 50.3798 56.9759 50.3798H56.7757C56.3701 50.4447 55.8994 50.5141 55.4287 50.5141H54.0166C53.5459 50.5141 53.0752 50.4447 52.6745 50.3798C52.5721 50.3522 52.4789 50.3428 52.3811 50.3428Z" fill="#9DACB9"/>
<path fill-rule="evenodd" clip-rule="evenodd" d="M52.3827 50.4028C51.7478 50.4028 51.2578 50.9039 51.2578 51.5628V54.8427C51.2578 55.1767 51.3932 55.4457 51.5986 55.645L53.8857 57.923C54.0912 58.1272 54.4274 58.1921 54.6979 58.1921C55.0342 58.1921 55.3047 58.0574 55.571 57.8581C55.3047 57.7884 55.0993 57.7235 54.8988 57.5891L52.6068 55.311C52.4059 55.1118 52.2708 54.8427 52.2708 54.5084V51.2285C52.2708 50.8945 52.4059 50.6255 52.6068 50.4213C52.5322 50.4074 52.4527 50.4028 52.3827 50.4028Z" fill="#B7C5D1"/>
<path fill-rule="evenodd" clip-rule="evenodd" d="M57.5553 36.5815C57.4758 36.5815 57.3963 36.6049 57.326 36.6513C55.7042 37.8567 53.8813 38.7236 51.9271 39.2614C51.3197 39.461 50.712 39.5953 50.1042 39.7297C49.5668 39.7946 48.959 39.8644 48.3513 39.9293C47.7438 39.9988 47.2715 40.4671 47.2715 41.0698V45.6875C47.2715 49.3644 50.3054 52.3782 54.0167 52.3782H55.433C59.1443 52.3782 62.1828 49.3644 62.1828 45.6875V40.8656C62.1828 40.3973 61.8462 39.9988 61.4396 39.7946C61.3039 39.7297 61.1684 39.6603 61.0376 39.6603C59.6867 39.127 58.6069 38.1209 57.9992 36.92L57.9337 36.7857C57.8451 36.6559 57.7002 36.5815 57.5553 36.5815Z" fill="#9DACB9"/>
<path fill-rule="evenodd" clip-rule="evenodd" d="M57.5474 36.5815C57.4679 36.5815 57.3888 36.6049 57.3188 36.6513C55.698 37.8567 53.8764 38.7236 51.9239 39.2614C51.3164 39.461 50.7093 39.5953 50.1022 39.6603C49.5651 39.7946 48.9577 39.8644 48.3506 39.9293C47.7435 39.9988 47.2715 40.4671 47.2715 41.0698V45.6875C47.2715 49.3644 50.3031 52.3782 54.0118 52.3782H55.3614C51.6527 52.3782 48.6869 49.3644 48.6869 45.6875V41.0698C48.6869 40.4671 49.1585 39.9988 49.6956 39.9293C50.3031 39.8644 50.9102 39.7946 51.5173 39.7297C53.8763 39.2614 56.1042 38.39 58.0567 37.1193L57.9913 36.92L57.9259 36.7857C57.8372 36.6559 57.6923 36.5815 57.5474 36.5815Z" fill="#B7C5D1"/>
</svg>
