<svg width="184" height="170" viewBox="0 0 184 170" fill="none" xmlns="http://www.w3.org/2000/svg">
<path d="M110.974 9.87451L14.5913 30.5403L43.1648 163.617L139.548 142.951L110.974 9.87451Z" fill="#E0E0E0"/>
<g opacity="0.5">
<path opacity="0.5" d="M109.827 12.4601L16.7041 32.4409L44.2932 161.023L137.416 141.042L109.827 12.4601Z" fill="url(#paint0_linear)"/>
</g>
<path d="M108.847 13.6743L18.0918 33.1333L45.0895 158.871L135.844 139.412L108.847 13.6743Z" fill="#FAFAFA"/>
<path d="M84.9285 13.1008L39.9062 22.7542L42.2463 33.6525L87.2686 23.9991L84.9285 13.1008Z" fill="url(#paint1_linear)"/>
<path d="M60.1307 7.28299C56.6548 8.02908 54.4555 11.5161 55.2202 15.0708C55.9848 18.6255 59.4202 20.9066 62.8894 20.1605C66.3586 19.4144 68.5646 15.9273 67.8 12.3727C67.0353 8.81801 63.6067 6.53689 60.1307 7.28299ZM62.3119 17.4488C61.5773 17.6239 60.8071 17.5765 60.0996 17.3125C59.3921 17.0485 58.7792 16.58 58.3391 15.9667C57.899 15.3534 57.6516 14.623 57.6285 13.8687C57.6053 13.1143 57.8074 12.3702 58.2091 11.731C58.6107 11.0919 59.1937 10.5868 59.8838 10.28C60.5738 9.97317 61.3396 9.87862 62.0836 10.0084C62.8276 10.1381 63.516 10.4863 64.0613 11.0085C64.6065 11.5308 64.9838 12.2034 65.1451 12.9407C65.2565 13.4227 65.2715 13.9219 65.1893 14.4097C65.1071 14.8974 64.9292 15.3642 64.666 15.7831C64.4027 16.202 64.0592 16.5648 63.6553 16.8507C63.2513 17.1365 62.7948 17.3398 62.3119 17.4488Z" fill="url(#paint2_linear)"/>
<path d="M84.3542 12.735L40.2803 22.1851L42.5171 32.6029L86.5911 23.1529L84.3542 12.735Z" fill="#BD03FA"/>
<path d="M60.1308 7.28301C58.9125 7.54431 57.7992 8.16072 56.9315 9.05432C56.0638 9.94792 55.4808 11.0786 55.2561 12.3033C55.0314 13.528 55.1752 14.7918 55.6693 15.9348C56.1634 17.0779 56.9855 18.0489 58.0318 18.725C59.0781 19.4011 60.3016 19.752 61.5474 19.7333C62.7933 19.7147 64.0056 19.3272 65.0311 18.62C66.0567 17.9128 66.8493 16.9176 67.3088 15.7603C67.7684 14.6029 67.8742 13.3354 67.6128 12.118C67.4393 11.3096 67.1081 10.5432 66.6382 9.86271C66.1682 9.1822 65.5687 8.60086 64.874 8.15189C64.1792 7.70291 63.4027 7.39509 62.5889 7.24601C61.775 7.09693 60.9398 7.1095 60.1308 7.28301ZM62.215 16.998C61.5118 17.1488 60.7797 17.0878 60.1112 16.8228C59.4427 16.5578 58.8679 16.1006 58.4594 15.509C58.051 14.9175 57.8272 14.2182 57.8165 13.4996C57.8057 12.781 58.0085 12.0754 58.3991 11.4719C58.7897 10.8685 59.3506 10.3943 60.0108 10.1095C60.6711 9.82458 61.4011 9.74175 62.1085 9.87147C62.8158 10.0012 63.4688 10.3376 63.9849 10.8382C64.5009 11.3388 64.8568 11.981 65.0075 12.6838C65.2096 13.6259 65.029 14.6097 64.5053 15.4188C63.9816 16.2278 63.1578 16.7959 62.215 16.998Z" fill="#BD03FA"/>
<path d="M155.748 26.3523H57.1714V162.457H155.748V26.3523Z" fill="#E0E0E0"/>
<g opacity="0.5">
<path opacity="0.5" d="M154.083 28.6538H58.8379V160.158H154.083V28.6538Z" fill="url(#paint3_linear)"/>
</g>
<path d="M152.87 29.623H60.0493V158.222H152.87V29.623Z" fill="white"/>
<path d="M129.605 24.0464H83.5576V35.1928H129.605V24.0464Z" fill="url(#paint4_linear)"/>
<path d="M106.581 13.166C103.026 13.166 100.144 16.1143 100.144 19.7524C100.144 23.3905 103.026 26.3388 106.581 26.3388C110.136 26.3388 113.019 23.3905 113.019 19.7524C113.019 16.1143 110.136 13.166 106.581 13.166ZM106.581 23.5528C105.825 23.5707 105.081 23.3631 104.444 22.9566C103.807 22.55 103.306 21.963 103.004 21.2703C102.702 20.5776 102.614 19.8108 102.75 19.0678C102.887 18.3248 103.242 17.6392 103.77 17.0987C104.298 16.5581 104.975 16.1871 105.715 16.033C106.455 15.8789 107.225 15.9487 107.925 16.2335C108.625 16.5183 109.224 17.0052 109.646 17.632C110.068 18.2587 110.294 18.997 110.294 19.7524C110.301 20.7453 109.915 21.7006 109.219 22.4094C108.523 23.1182 107.575 23.5228 106.581 23.5347V23.5528Z" fill="url(#paint5_linear)"/>
<path d="M129.12 23.5686H84.043V34.2236H129.12V23.5686Z" fill="#BD03FA"/>
<path d="M106.581 13.166C105.335 13.166 104.117 13.5352 103.081 14.227C102.045 14.9188 101.238 15.902 100.761 17.0524C100.284 18.2028 100.159 19.4686 100.402 20.6898C100.645 21.9111 101.245 23.0328 102.126 23.9133C103.008 24.7938 104.13 25.3934 105.352 25.6363C106.574 25.8792 107.841 25.7545 108.992 25.278C110.143 24.8015 111.127 23.9946 111.82 22.9593C112.512 21.924 112.881 20.7068 112.881 19.4616C112.881 17.7919 112.218 16.1906 111.036 15.01C109.855 13.8293 108.252 13.166 106.581 13.166ZM106.581 23.0952C105.863 23.0943 105.161 22.8807 104.563 22.4813C103.966 22.0819 103.501 21.5146 103.226 20.8511C102.951 20.1876 102.879 19.4576 103.019 18.7533C103.16 18.049 103.505 17.402 104.013 16.8939C104.521 16.3858 105.168 16.0395 105.873 15.8987C106.577 15.7578 107.308 15.8287 107.972 16.1025C108.636 16.3763 109.205 16.8406 109.605 17.4368C110.005 18.0331 110.22 18.7345 110.222 19.4526C110.222 19.93 110.127 20.4026 109.944 20.8435C109.761 21.2843 109.493 21.6848 109.155 22.0221C108.816 22.3593 108.415 22.6266 107.974 22.8088C107.532 22.991 107.059 23.0845 106.581 23.0839V23.0952Z" fill="#BD03FA"/>
<path opacity="0.5" d="M5.27539 168.965V168.118H0.464084V168.965H5.27539Z" fill="#47E6B1"/>
<path opacity="0.5" d="M101.688 0H100.841V4.80793H101.688V0Z" fill="#47E6B1"/>
<path opacity="0.5" d="M29.8283 127.918C29.5943 127.817 29.406 127.632 29.2991 127.401C29.1922 127.169 29.1742 126.907 29.2486 126.663C29.2606 126.626 29.2681 126.587 29.2711 126.548C29.2778 126.436 29.2484 126.325 29.1872 126.232C29.126 126.138 29.0363 126.067 28.9312 126.028C28.8262 125.989 28.7116 125.985 28.6042 126.017C28.4968 126.048 28.4024 126.114 28.335 126.203C28.3116 126.234 28.2919 126.268 28.2764 126.304C28.1745 126.538 27.9903 126.726 27.7586 126.833C27.5269 126.94 27.264 126.958 27.02 126.884C26.9826 126.872 26.944 126.864 26.9049 126.861C26.7932 126.854 26.6823 126.884 26.5886 126.945C26.4949 127.006 26.4234 127.096 26.3847 127.201C26.346 127.306 26.3421 127.42 26.3737 127.528C26.4052 127.635 26.4705 127.729 26.5598 127.797C26.5912 127.82 26.6253 127.84 26.6613 127.855C26.8953 127.957 27.0836 128.141 27.1905 128.373C27.2974 128.604 27.3154 128.867 27.241 129.111C27.229 129.148 27.2215 129.187 27.2185 129.226C27.2117 129.337 27.2412 129.448 27.3024 129.542C27.3636 129.635 27.4533 129.707 27.5583 129.746C27.6634 129.784 27.778 129.788 27.8854 129.757C27.9928 129.725 28.0872 129.66 28.1546 129.571C28.178 129.539 28.1977 129.505 28.2132 129.469C28.315 129.235 28.4993 129.047 28.731 128.94C28.9627 128.834 29.2255 128.816 29.4696 128.89C29.5069 128.902 29.5456 128.909 29.5847 128.912C29.6964 128.919 29.8073 128.89 29.901 128.829C29.9947 128.767 30.0662 128.678 30.1049 128.573C30.1436 128.468 30.1475 128.353 30.1159 128.246C30.0844 128.139 30.0191 128.044 29.9298 127.977C29.8983 127.954 29.8643 127.934 29.8283 127.918Z" fill="#FDD835"/>
<path opacity="0.5" d="M149.019 15.3683C148.785 15.2665 148.597 15.0824 148.49 14.8509C148.383 14.6194 148.365 14.3567 148.439 14.1128C148.451 14.0755 148.459 14.0369 148.462 13.9978C148.469 13.8862 148.439 13.7753 148.378 13.6817C148.317 13.5881 148.227 13.5166 148.122 13.4779C148.017 13.4393 147.902 13.4354 147.795 13.4669C147.688 13.4984 147.593 13.5636 147.526 13.6529C147.502 13.6843 147.483 13.7184 147.467 13.7544C147.365 13.9881 147.181 14.1763 146.95 14.2831C146.718 14.39 146.455 14.4079 146.211 14.3337C146.174 14.3217 146.135 14.3141 146.096 14.3111C145.984 14.3044 145.873 14.3338 145.78 14.395C145.686 14.4561 145.614 14.5458 145.576 14.6508C145.537 14.7557 145.533 14.8703 145.565 14.9776C145.596 15.0849 145.661 15.1792 145.751 15.2466C145.782 15.27 145.816 15.2897 145.852 15.3052C146.086 15.4069 146.275 15.5911 146.381 15.8226C146.488 16.0541 146.506 16.3168 146.432 16.5607C146.42 16.598 146.412 16.6366 146.409 16.6756C146.403 16.7873 146.432 16.8981 146.493 16.9917C146.554 17.0854 146.644 17.1568 146.749 17.1955C146.854 17.2342 146.969 17.2381 147.076 17.2065C147.184 17.175 147.278 17.1098 147.345 17.0205C147.369 16.9891 147.389 16.9551 147.404 16.9191C147.506 16.6853 147.69 16.4971 147.922 16.3903C148.154 16.2835 148.416 16.2655 148.661 16.3398C148.698 16.3518 148.736 16.3593 148.776 16.3623C148.887 16.369 148.998 16.3397 149.092 16.2785C149.186 16.2173 149.257 16.1276 149.296 16.0227C149.335 15.9178 149.338 15.8032 149.307 15.6958C149.275 15.5885 149.21 15.4942 149.121 15.4269C149.089 15.4034 149.055 15.3838 149.019 15.3683Z" fill="#FDD835"/>
<path opacity="0.5" d="M182.304 72.5812C183.242 72.5812 184.003 71.8212 184.003 70.8838C184.003 69.9464 183.242 69.1865 182.304 69.1865C181.366 69.1865 180.605 69.9464 180.605 70.8838C180.605 71.8212 181.366 72.5812 182.304 72.5812Z" fill="#F55F44"/>
<path opacity="0.5" d="M51.0447 169.997C51.9828 169.997 52.7432 169.238 52.7432 168.3C52.7432 167.363 51.9828 166.603 51.0447 166.603C50.1066 166.603 49.3462 167.363 49.3462 168.3C49.3462 169.238 50.1066 169.997 51.0447 169.997Z" fill="#F55F44"/>
<path opacity="0.5" d="M164.861 109.268C165.799 109.268 166.559 108.508 166.559 107.571C166.559 106.633 165.799 105.874 164.861 105.874C163.923 105.874 163.162 106.633 163.162 107.571C163.162 108.508 163.923 109.268 164.861 109.268Z" fill="#F55F44"/>
<path opacity="0.5" d="M18.656 23.4154C19.5941 23.4154 20.3545 22.6555 20.3545 21.7181C20.3545 20.7807 19.5941 20.0208 18.656 20.0208C17.718 20.0208 16.9575 20.7807 16.9575 21.7181C16.9575 22.6555 17.718 23.4154 18.656 23.4154Z" fill="#4D8AF0"/>
<path d="M107.076 74V82" stroke="#828282" stroke-width="2" stroke-linecap="round" stroke-linejoin="round"/>
<path d="M107.076 106V114" stroke="#828282" stroke-width="2" stroke-linecap="round" stroke-linejoin="round"/>
<path d="M92.9258 79.8599L98.5898 85.5199" stroke="#828282" stroke-width="2" stroke-linecap="round" stroke-linejoin="round"/>
<path d="M115.562 102.48L121.226 108.14" stroke="#828282" stroke-width="2" stroke-linecap="round" stroke-linejoin="round"/>
<path d="M87.062 94H95.0676" stroke="#828282" stroke-width="2" stroke-linecap="round" stroke-linejoin="round"/>
<path d="M119.084 94H127.09" stroke="#828282" stroke-width="2" stroke-linecap="round" stroke-linejoin="round"/>
<path d="M92.9258 108.14L98.5898 102.48" stroke="#828282" stroke-width="2" stroke-linecap="round" stroke-linejoin="round"/>
<path d="M115.562 85.5199L121.226 79.8599" stroke="#828282" stroke-width="2" stroke-linecap="round" stroke-linejoin="round"/>
<defs>
<linearGradient id="paint0_linear" x1="90.8535" y1="151.033" x2="63.2644" y2="22.4508" gradientUnits="userSpaceOnUse">
<stop stop-color="#808080" stop-opacity="0.25"/>
<stop offset="0.54" stop-color="#808080" stop-opacity="0.12"/>
<stop offset="1" stop-color="#808080" stop-opacity="0.1"/>
</linearGradient>
<linearGradient id="paint1_linear" x1="24767.5" y1="-3223.07" x2="24652" y2="-3762.03" gradientUnits="userSpaceOnUse">
<stop stop-color="#808080" stop-opacity="0.25"/>
<stop offset="0.54" stop-color="#808080" stop-opacity="0.12"/>
<stop offset="1" stop-color="#808080" stop-opacity="0.1"/>
</linearGradient>
<linearGradient id="paint2_linear" x1="7231.49" y1="367.632" x2="7070.27" y2="-384.258" gradientUnits="userSpaceOnUse">
<stop stop-color="#808080" stop-opacity="0.25"/>
<stop offset="0.54" stop-color="#808080" stop-opacity="0.12"/>
<stop offset="1" stop-color="#808080" stop-opacity="0.1"/>
</linearGradient>
<linearGradient id="paint3_linear" x1="45433.6" y1="93466.7" x2="45433.6" y2="16745.5" gradientUnits="userSpaceOnUse">
<stop stop-color="#808080" stop-opacity="0.25"/>
<stop offset="0.54" stop-color="#808080" stop-opacity="0.12"/>
<stop offset="1" stop-color="#808080" stop-opacity="0.1"/>
</linearGradient>
<linearGradient id="paint4_linear" x1="22045.2" y1="1764.33" x2="22045.2" y2="1213.14" gradientUnits="userSpaceOnUse">
<stop stop-color="#808080" stop-opacity="0.25"/>
<stop offset="0.54" stop-color="#808080" stop-opacity="0.12"/>
<stop offset="1" stop-color="#808080" stop-opacity="0.1"/>
</linearGradient>
<linearGradient id="paint5_linear" x1="8686.15" y1="2336.71" x2="8686.15" y2="1566.9" gradientUnits="userSpaceOnUse">
<stop stop-color="#808080" stop-opacity="0.25"/>
<stop offset="0.54" stop-color="#808080" stop-opacity="0.12"/>
<stop offset="1" stop-color="#808080" stop-opacity="0.1"/>
</linearGradient>
</defs>
</svg>
