<svg width="70" height="70" viewBox="0 0 70 70" fill="none" xmlns="http://www.w3.org/2000/svg">
<path fill-rule="evenodd" clip-rule="evenodd" d="M35.3575 0C16.224 0 0.832031 12.2785 0.832031 27.4327C0.832031 41.0365 13.0991 52.2226 29.3411 54.5066C30.2991 59.9252 28.4992 65.4602 24.6496 69.3111C33.1907 69.3111 40.2831 62.9345 41.3665 54.5066C57.6085 52.2226 70 41.0365 70 27.4327C70 12.2785 54.4828 0 35.3575 0Z" fill="#A598B6"/>
<path fill-rule="evenodd" clip-rule="evenodd" d="M23.196 25.0098C21.8694 25.0098 20.7852 26.1028 20.7852 27.4313C20.7852 28.7682 21.8694 29.8612 23.196 29.8612C24.5144 29.8612 25.724 28.7682 25.724 27.4313C25.724 26.1028 24.5144 25.0098 23.196 25.0098Z" fill="#F2F3F5"/>
<path fill-rule="evenodd" clip-rule="evenodd" d="M47.5737 25.0098C46.2586 25.0098 45.1826 26.1028 45.1826 27.4313C45.1826 28.7682 46.2586 29.8612 47.5737 29.8612C48.8896 29.8612 49.9648 28.7682 49.9648 27.4313C49.9648 26.1028 48.8896 25.0098 47.5737 25.0098Z" fill="#F2F3F5"/>
<path fill-rule="evenodd" clip-rule="evenodd" d="M35.4526 25.0098C34.1367 25.0098 33.0615 26.1028 33.0615 27.4313C33.0615 28.7682 34.1367 29.8612 35.4526 29.8612C36.7677 29.8612 37.8437 28.7682 37.8437 27.4313C37.8437 26.1028 36.7677 25.0098 35.4526 25.0098Z" fill="#F2F3F5"/>
</svg>
