<svg width="162" height="32" viewBox="0 0 162 32" fill="none" xmlns="http://www.w3.org/2000/svg">
<g clip-path="url(#clip0)">
<g clip-path="url(#clip1)">
<path d="M155.152 5.30106V5.1254C155.125 3.84946 154.6 2.63335 153.686 1.732C152.773 0.830653 151.542 0.314063 150.253 0.290527H150.075C149.109 0.308564 148.168 0.604002 147.369 1.1409C146.569 1.67781 145.944 2.43303 145.571 3.31471C145.197 4.19639 145.09 5.16652 145.263 6.10709C145.437 7.04766 145.883 7.91813 146.547 8.61262C145.684 9.50761 145.194 10.6908 145.173 11.9271V12.097C145.196 13.3756 145.72 14.5955 146.634 15.4995C147.549 16.4035 148.782 16.9212 150.075 16.9434H150.253C151.219 16.9234 152.159 16.6262 152.958 16.0878C153.757 15.5494 154.38 14.793 154.753 13.9106C155.125 13.0281 155.231 12.0577 155.056 11.1171C154.881 10.1766 154.434 9.30652 153.769 8.61262C154.635 7.72032 155.129 6.53775 155.152 5.30106ZM152.046 12.0624C152.034 12.5399 151.837 12.9945 151.496 13.3323C151.154 13.67 150.694 13.8649 150.212 13.8766H150.113C149.541 13.8684 148.981 13.7194 148.482 13.4429C147.983 13.1665 147.562 12.7714 147.257 12.2933C146.951 11.8153 146.771 11.2695 146.732 10.7052C146.694 10.141 146.798 9.57615 147.036 9.06184C147.899 9.74755 148.968 10.1295 150.075 10.1475H150.212C150.694 10.1591 151.154 10.354 151.496 10.6917C151.837 11.0295 152.034 11.4841 152.046 11.9616C152.05 11.9941 152.05 12.027 152.046 12.0595V12.0624ZM153.289 8.16628C152.427 7.48001 151.359 7.09794 150.253 7.08066H150.113C149.63 7.06825 149.17 6.87274 148.829 6.53456C148.488 6.19637 148.291 5.74137 148.279 5.26363C148.277 5.2483 148.277 5.23288 148.279 5.21755C148.277 5.20127 148.277 5.18488 148.279 5.1686C148.291 4.69108 148.489 4.23648 148.83 3.89844C149.171 3.5604 149.63 3.36467 150.113 3.35156H150.212C150.784 3.36024 151.344 3.50973 151.843 3.78651C152.341 4.0633 152.762 4.45866 153.068 4.93686C153.373 5.41505 153.553 5.961 153.592 6.52535C153.631 7.0897 153.526 7.65466 153.289 8.16916V8.16628Z" fill="#BEBEBE"/>
<path d="M153.6 6.74951C153.6 7.23832 153.494 7.72137 153.289 8.16628C152.427 7.48001 151.359 7.09794 150.253 7.08066H150.212C150.699 7.06172 151.16 6.85699 151.498 6.50939C151.836 6.16179 152.024 5.69831 152.024 5.21611C152.024 4.73391 151.836 4.27043 151.498 3.92283C151.16 3.57523 150.699 3.3705 150.212 3.35156C151.115 3.36442 151.977 3.72839 152.611 4.36478C153.245 5.00117 153.601 5.85885 153.6 6.75238V6.74951Z" fill="#BEBEBE"/>
<path d="M148.276 12.0136C148.276 12.4999 148.468 12.9669 148.811 13.315C149.154 13.6631 149.622 13.8647 150.113 13.8767C149.541 13.8686 148.981 13.7195 148.482 13.4431C147.983 13.1666 147.562 12.7715 147.257 12.2935C146.951 11.8155 146.771 11.2697 146.732 10.7054C146.694 10.1412 146.798 9.57632 147.036 9.06201C147.899 9.74772 148.968 10.1297 150.075 10.1476H150.113C149.621 10.1597 149.153 10.3617 148.81 10.7104C148.467 11.0591 148.275 11.5269 148.276 12.0136Z" fill="#BEBEBE"/>
<path d="M145.421 18.1299V18.749H154.902V18.1299H145.421Z" fill="#BEBEBE"/>
<path d="M23.69 23.3096C23.7149 22.8213 23.6224 22.3341 23.42 21.8881C23.2176 21.442 22.911 21.0499 22.5256 20.7439C21.7396 20.1334 20.3598 19.4999 18.3861 18.8433C16.7331 18.314 15.1169 17.6782 13.5479 16.9399C9.4725 14.9587 7.43478 12.2375 7.43478 8.77619C7.40516 7.13001 7.93743 5.52202 8.94561 4.212C9.96253 2.89698 11.3986 1.87183 13.2539 1.13657C15.2528 0.376624 17.3802 0.00225442 19.5214 0.0336782C21.6116 -0.000129256 23.6849 0.408297 25.6025 1.2316C27.2973 1.94864 28.7482 3.13203 29.7828 4.64106C30.7842 6.13806 31.3038 7.89996 31.2732 9.69479H23.7045C23.7045 8.42775 23.3164 7.44485 22.5401 6.74606C21.7541 6.04919 20.6945 5.69788 19.338 5.69788C17.9814 5.69788 16.916 5.98584 16.1359 6.5848C15.7721 6.83966 15.4762 7.17789 15.2734 7.57056C15.0706 7.96322 14.967 8.39863 14.9714 8.83954C14.9714 9.63815 15.4032 10.3619 16.2668 11.0108C17.1305 11.6596 18.65 12.3316 20.8255 13.0265C22.6856 13.5851 24.4817 14.334 26.1847 15.2611C29.5771 17.1904 31.2732 19.8589 31.2732 23.2664C31.2732 25.9886 30.2369 28.1262 28.1642 29.6793C26.0916 31.2324 23.2465 32.0089 19.6291 32.0089C17.2496 32.0437 14.8896 31.5805 12.7037 30.6497C10.6369 29.7455 9.08437 28.5063 8.0461 26.9322C6.98542 25.3145 6.43705 23.4204 6.47123 21.4926H14.0748C14.0748 23.1589 14.5115 24.3875 15.3848 25.1785C16.2581 25.9694 17.6729 26.3649 19.6291 26.3649C20.8808 26.3649 21.8735 26.0971 22.5983 25.5643C22.9539 25.3064 23.2395 24.9657 23.4299 24.5724C23.6204 24.179 23.7097 23.7453 23.69 23.3096Z" fill="#BEBEBE"/>
<path d="M59.8569 6.24306H50.4281V31.5837H42.8332V6.24306H33.5645V0.452148H59.8569V6.24306Z" fill="#BEBEBE"/>
<path d="M78.3298 25.7553H67.9374L66.1238 31.5693H58.0225L69.5589 0.452148H76.688L88.3117 31.5693H80.1608L78.3298 25.7553ZM69.7539 19.9644H76.5162L73.1336 9.17163L69.7539 19.9644Z" fill="#BEBEBE"/>
<path d="M115.902 27.7219C114.738 29.0062 113.031 30.039 110.782 30.8204C108.409 31.6241 105.916 32.0223 103.408 31.9981C99.2862 31.9981 95.9948 30.7503 93.534 28.2546C91.0732 25.759 89.7506 22.2929 89.5663 17.8564L89.543 15.1639C89.543 12.0923 90.0902 9.41718 91.1848 7.13844C92.1847 4.95322 93.8205 3.11251 95.8832 1.85148C98.021 0.59282 100.473 -0.0476609 102.96 0.00276366C106.878 0.00276366 109.921 0.889684 112.089 2.66353C114.257 4.43737 115.518 7.08373 115.873 10.6026H108.578C108.32 8.87485 107.758 7.63566 106.893 6.88504C106.027 6.13442 104.803 5.76007 103.219 5.76199C102.335 5.73502 101.46 5.94276 100.685 6.36359C99.9102 6.78443 99.2632 7.40299 98.8117 8.15495C97.7754 9.75025 97.2495 12.0299 97.2339 14.994V16.8744C97.2339 19.9806 97.7705 22.314 98.8437 23.8748C99.9169 25.4355 101.606 26.2159 103.912 26.2159C105.882 26.2159 107.351 25.7811 108.319 24.9114V20.0938H103.047V14.9422H115.902V27.7219Z" fill="#BEBEBE"/>
<path d="M139.82 18.3605H127.885V25.7985H141.98V31.5578H120.311V0.452148H142.024V6.24306H127.894V12.8057H139.829L139.82 18.3605Z" fill="#BEBEBE"/>
</g>
</g>
<defs>
<clipPath id="clip0">
<rect width="161.745" height="32" fill="white"/>
</clipPath>
<clipPath id="clip1">
<rect width="161.745" height="32" fill="white"/>
</clipPath>
</defs>
</svg>
