<svg width="79" height="70" viewBox="0 0 79 70" fill="none" xmlns="http://www.w3.org/2000/svg">
<g clip-path="url(#clip0_10457_98376)">
<path fill-rule="evenodd" clip-rule="evenodd" d="M21.6473 3.81299C17.4428 3.81299 14.0605 6.66557 14.0605 10.2001C14.0605 13.7294 17.4428 16.5872 21.6473 16.5872C25.9297 16.5872 29.3068 13.7294 29.3068 10.2001C29.3068 6.66557 25.9297 3.81299 21.6473 3.81299Z" fill="#A292B9"/>
<path fill-rule="evenodd" clip-rule="evenodd" d="M21.6639 3.81299C17.4613 3.81299 14.0078 6.66557 14.0078 10.2001C14.0078 13.7294 17.4613 16.5872 21.6639 16.5872C22.5636 16.5872 23.3906 16.4363 24.2904 16.2072C21.2894 15.3847 19.1881 12.9798 19.1881 10.2001C19.1881 7.41517 21.2894 5.08832 24.2176 4.18776C23.3906 3.95873 22.5636 3.81299 21.6639 3.81299Z" fill="#6F5C85"/>
<path fill-rule="evenodd" clip-rule="evenodd" d="M21.6449 10.1768C12.4829 10.1768 5.12109 17.599 5.12109 26.7455C5.12109 35.8921 12.4829 43.2416 21.6449 43.2416C30.8069 43.2416 38.2415 35.8921 38.2415 26.7455C38.2415 17.599 30.8069 10.1768 21.6449 10.1768Z" fill="#78668C"/>
<path fill-rule="evenodd" clip-rule="evenodd" d="M21.8396 10.1768C20.9508 10.1768 20.0621 10.2495 19.1682 10.4001C12.6405 11.5999 11.8142 21.1204 18.4146 23.1461H18.6433L20.218 43.1639C20.7429 43.1639 21.1899 43.2416 21.6421 43.2416C30.7943 43.2416 38.2212 35.8921 38.2212 26.7455C38.2991 23.2967 37.2494 19.9206 35.2221 17.225C32.1352 12.7893 27.1251 10.1768 21.8396 10.1768Z" fill="#6F5C85"/>
<path fill-rule="evenodd" clip-rule="evenodd" d="M15.3324 44.5508V50.1664C15.2595 51.1361 14.7338 52.0385 13.755 52.4845L3.00974 57.203C1.20324 58.0219 0.00585938 59.8214 0.00585938 61.8437V68.7295C0.00585938 69.4039 0.531637 70.0001 1.28135 70.0001H42.0864C42.763 70.0001 43.367 69.4039 43.367 68.7295V61.9162C43.367 59.8939 42.1643 58.0219 40.358 57.203L29.6126 52.4845C28.6339 52.0385 28.0352 51.1361 28.0352 50.1664V44.5508H15.3324Z" fill="#B7AAC8"/>
<path fill-rule="evenodd" clip-rule="evenodd" d="M10.975 53.731L3.00974 57.1798C1.20324 58.0009 0.00585938 59.876 0.00585938 61.902V68.7272C0.00585938 69.4027 0.531637 70 1.28135 70H42.0864C42.763 70 43.367 69.4027 43.367 68.7272V61.8289C43.367 59.803 42.1643 58.0009 40.358 57.1798L32.3927 53.731C30.5133 58.6398 26.0986 61.0966 21.6838 61.0966C17.2691 61.0966 12.8544 58.6398 10.975 53.731Z" fill="#F1EFF3"/>
<path fill-rule="evenodd" clip-rule="evenodd" d="M15.3096 44.5508V48.2667C17.3025 49.1576 19.4619 49.6052 21.6318 49.6052C23.8016 49.6052 25.9767 49.1576 28.006 48.2667V44.5508H15.3096Z" fill="#A294B3"/>
<path fill-rule="evenodd" clip-rule="evenodd" d="M18.2771 23.1597C17.2986 23.1597 16.4139 23.6681 15.9506 24.5344C14.5974 27.2269 12.4947 29.4733 10.0121 31.1956C9.34075 31.647 8.88797 32.394 8.9608 33.2189V33.9711C8.9608 40.7101 14.0718 46.6243 20.8326 47.0755C21.1032 47.0911 21.3739 47.1015 21.6393 47.1015C28.6448 47.1015 34.4323 41.4885 34.4323 34.4173V32.1709C34.4323 31.0504 33.9796 30.0024 33.1572 29.328C31.1274 27.5278 26.5421 24.384 18.6571 23.1856C18.527 23.17 18.402 23.1597 18.2771 23.1597Z" fill="#B7AAC8"/>
<path fill-rule="evenodd" clip-rule="evenodd" d="M18.2783 23.1597C17.2997 23.1597 16.4148 23.668 15.9516 24.5341C15.7277 24.9801 15.4258 25.504 15.1968 25.8826C13.8486 27.978 12.0424 29.7726 10.0123 31.1211C9.3408 31.6449 8.96079 32.3918 8.96079 33.2165V33.9685C8.88796 40.4777 13.6195 46.0223 20.1574 46.992C17.8306 44.5957 16.5502 41.4525 16.6282 38.2319V30.2238C16.5502 28.8753 17.6016 27.8276 18.8821 27.6772C19.8347 27.5786 20.7925 27.532 21.7503 27.532C25.9145 27.532 30.0632 28.4448 33.9099 30.146C33.686 29.8504 33.457 29.5495 33.1603 29.3265C31.1302 27.5268 26.5444 24.3837 18.6583 23.1856C18.5282 23.17 18.4032 23.1597 18.2783 23.1597Z" fill="#C7BCD4"/>
<path fill-rule="evenodd" clip-rule="evenodd" d="M1.87694 57.9561C0.676315 58.8527 0.00585938 60.3502 0.00585938 61.8478V68.7304C0.00585938 69.4038 0.603532 70 1.27921 70H8.92993V66.4865C8.92993 65.4344 8.48295 64.4652 7.80732 63.7913L1.87694 57.9561Z" fill="#B6A9C7"/>
<path fill-rule="evenodd" clip-rule="evenodd" d="M41.4801 57.9561L35.5201 63.7913C34.7621 64.5377 34.3857 65.5121 34.3857 66.4865V70H42.0814C42.7607 70 43.3673 69.4038 43.3673 68.7304V61.8478C43.3673 60.3502 42.6092 58.8527 41.4801 57.9561Z" fill="#B6A9C7"/>
<path fill-rule="evenodd" clip-rule="evenodd" d="M47.1962 3.81299C45.0973 3.81299 43.3721 5.53748 43.3721 7.63597V28.0288C43.3721 30.1273 45.0973 31.8518 47.1962 31.8518H51.0202L48.9214 40.3289C48.807 40.7341 49.1393 41.0976 49.5447 41.0976C49.6592 41.0976 49.7788 41.0663 49.8979 41.0043L62.4982 31.8518H75.1711C77.2752 31.8518 79.0004 30.1273 79.0004 28.0288V7.63597C79.0004 5.53748 77.3483 3.81299 75.1711 3.81299H47.1962Z" fill="#F1EFF3"/>
<path fill-rule="evenodd" clip-rule="evenodd" d="M50.1645 3.81299C49.0391 5.76318 48.4346 7.94216 48.4346 10.194C48.4346 17.4331 54.3481 22.9508 61.1791 22.9508C62.2836 22.9508 63.4038 22.8052 64.5345 22.5036C72.5792 20.3246 76.4921 11.0937 72.2772 3.81299H50.1645Z" fill="#F7F6F8"/>
<path fill-rule="evenodd" clip-rule="evenodd" d="M61.2201 22.9038C60.5905 22.9038 59.9552 23.338 59.9552 24.2066V26.7755C59.8831 27.4556 60.4766 28.0573 61.2201 28.0573C61.8915 28.0573 62.4129 27.4556 62.4903 26.7755V24.2066C62.4903 23.338 61.8554 22.9038 61.2201 22.9038Z" fill="#85729B"/>
<path fill-rule="evenodd" clip-rule="evenodd" d="M61.2176 0C55.5831 0 50.9951 4.57551 50.9951 10.2001C50.9951 15.8194 55.5831 20.3949 61.2176 20.3949C66.8573 20.3949 71.3669 15.8194 71.3669 10.2001C71.3669 4.57551 66.8573 0 61.2176 0Z" fill="#B5A8C6"/>
<path fill-rule="evenodd" clip-rule="evenodd" d="M61.2075 2.55615C56.9346 2.55615 53.5557 6.00201 53.5557 10.2003C53.5557 14.3935 56.9346 17.8393 61.2075 17.8393C65.413 17.8393 68.8645 14.3935 68.8645 10.2003C68.8645 6.00201 65.413 2.55615 61.2075 2.55615Z" fill="#F1EFF3"/>
<path fill-rule="evenodd" clip-rule="evenodd" d="M65.0115 8.87256C64.4331 8.87256 63.9012 9.28891 63.7706 9.87697L63.6974 10.1008H58.6555L58.5771 9.87697C58.3895 9.21604 57.8837 8.92461 57.3728 8.92461C56.6684 8.92461 55.9646 9.48665 56.0947 10.4026L58.2014 19.9421C59.1037 20.1659 60.0061 20.3168 60.9131 20.3168L59.2547 12.729H63.1708L61.4398 20.3949C62.3421 20.3168 63.2439 20.1659 64.1463 19.9421L66.2581 10.4755C66.4039 9.72607 65.9556 9.04949 65.2774 8.89859C65.1891 8.87777 65.1003 8.87256 65.0115 8.87256Z" fill="white"/>
<path fill-rule="evenodd" clip-rule="evenodd" d="M57.3701 19.6123V24.2199C57.3701 24.8998 57.8968 25.5013 58.6528 25.5013H63.768C64.4456 25.5013 65.0507 24.8998 65.0507 24.2199V19.6123H57.3701Z" fill="#C7BCD4"/>
<path fill-rule="evenodd" clip-rule="evenodd" d="M57.3701 19.6123V24.2199C57.3701 24.8998 57.8999 25.5013 58.6607 25.5013H61.2313C60.4758 25.5013 59.8723 24.8998 59.946 24.2199V19.6123H57.3701Z" fill="#85729B"/>
</g>
<defs>
<clipPath id="clip0_10457_98376">
<rect width="79" height="70" fill="white"/>
</clipPath>
</defs>
</svg>
